<?xml version="1.0" standalone="no"?><!DOCTYPE svg PUBLIC "-//W3C//DTD SVG 1.1//EN" "http://www.w3.org/Graphics/SVG/1.1/DTD/svg11.dtd"><svg t="1694741548264" class="icon" viewBox="0 0 1024 1024" version="1.1" xmlns="http://www.w3.org/2000/svg" p-id="7017" xmlns:xlink="http://www.w3.org/1999/xlink" width="128" height="128"><path d="M892.949113 131.050887c-173.763299-173.763299-456.292289-173.763299-630.055587 0C97.089979 296.854433 90.196454 562.133773 241.410639 736.963299L10.345567 968.028371c-12.731381 12.731381-12.731381 33.148041 0 45.626062a32.166268 32.166268 0 0 0 22.813031 9.553814c8.234227 0 16.44734-3.188124 22.813031-9.553814L287.036701 782.589361A443.592577 443.592577 0 0 0 578.053278 891.091134c114.075711 0 228.151423-43.504165 314.895835-130.248577 173.763299-173.499381 173.763299-456.292289 0-629.79167z m-45.626061 584.155051c-148.564454 148.564454-389.964536 148.564454-538.52899 0-148.564454-148.553897-148.564454-389.964536 0-538.52899C383.07101 102.4 480.435464 65.261526 578.053278 65.261526c97.628371 0 194.982268 37.138474 269.269774 111.415422 148.289979 148.564454 148.289979 389.964536 0 538.52899z" p-id="7018"></path></svg>